<svg width="15" height="12" viewBox="0 0 15 12" fill="none" xmlns="http://www.w3.org/2000/svg">
<path d="M6.104 10L4.184 7.3C3.968 7.324 3.744 7.336 3.512 7.336H1.256V10H0.368V1.6H3.512C4.584 1.6 5.424 1.856 6.032 2.368C6.64 2.88 6.944 3.584 6.944 4.48C6.944 5.136 6.776 5.692 6.44 6.148C6.112 6.596 5.64 6.92 5.024 7.12L7.076 10H6.104ZM3.488 6.58C4.32 6.58 4.956 6.396 5.396 6.028C5.836 5.66 6.056 5.144 6.056 4.48C6.056 3.8 5.836 3.28 5.396 2.92C4.956 2.552 4.32 2.368 3.488 2.368H1.256V6.58H3.488ZM14.7379 7.78C14.7379 8.396 14.5019 8.92 14.0299 9.352C13.5579 9.776 12.8659 10.012 11.9539 10.06V11.44H11.3539V10.072C10.7699 10.04 10.2179 9.928 9.69788 9.736C9.18588 9.536 8.78188 9.284 8.48588 8.98L8.83388 8.296C9.11388 8.568 9.47788 8.796 9.92588 8.98C10.3819 9.164 10.8579 9.272 11.3539 9.304V6.148C10.8019 6.012 10.3419 5.868 9.97388 5.716C9.60588 5.556 9.29788 5.328 9.04988 5.032C8.80988 4.728 8.68988 4.328 8.68988 3.832C8.68988 3.216 8.91388 2.7 9.36188 2.284C9.80988 1.86 10.4739 1.612 11.3539 1.54V0.159999H11.9539V1.528C12.4099 1.544 12.8499 1.62 13.2739 1.756C13.7059 1.884 14.0779 2.056 14.3899 2.272L14.0899 2.98C13.7619 2.772 13.4139 2.608 13.0459 2.488C12.6779 2.368 12.3139 2.3 11.9539 2.284V5.464C12.5459 5.608 13.0299 5.756 13.4059 5.908C13.7819 6.052 14.0979 6.276 14.3539 6.58C14.6099 6.884 14.7379 7.284 14.7379 7.78ZM9.56588 3.808C9.56588 4.224 9.71788 4.54 10.0219 4.756C10.3339 4.972 10.7779 5.156 11.3539 5.308V2.308C10.7619 2.356 10.3139 2.52 10.0099 2.8C9.71388 3.072 9.56588 3.408 9.56588 3.808ZM11.9539 9.304C12.5859 9.256 13.0619 9.1 13.3819 8.836C13.7019 8.572 13.8619 8.236 13.8619 7.828C13.8619 7.396 13.6979 7.072 13.3699 6.856C13.0419 6.64 12.5699 6.456 11.9539 6.304V9.304Z" fill="#374952"/>
</svg>
